<svg xmlns="http://www.w3.org/2000/svg" viewBox="0 0 490 490" width="490" height="490" shape-rendering="crispEdges" role="img" aria-label="QR code linking to https://chakh-site-2pvg.vercel.app/app?scan=1"><rect width="490" height="490" fill="#F4E9D8"/><g fill="#150F0C"><rect x="40" y="40" width="10" height="10"/><rect x="50" y="40" width="10" height="10"/><rect x="60" y="40" width="10" height="10"/><rect x="70" y="40" width="10" height="10"/><rect x="80" y="40" width="10" height="10"/><rect x="90" y="40" width="10" height="10"/><rect x="100" y="40" width="10" height="10"/><rect x="120" y="40" width="10" height="10"/><rect x="130" y="40" width="10" height="10"/><rect x="160" y="40" width="10" height="10"/><rect x="180" y="40" width="10" height="10"/><rect x="200" y="40" width="10" height="10"/><rect x="220" y="40" width="10" height="10"/><rect x="230" y="40" width="10" height="10"/><rect x="250" y="40" width="10" height="10"/><rect x="290" y="40" width="10" height="10"/><rect x="300" y="40" width="10" height="10"/><rect x="350" y="40" width="10" height="10"/><rect x="380" y="40" width="10" height="10"/><rect x="390" y="40" width="10" height="10"/><rect x="400" y="40" width="10" height="10"/><rect x="410" y="40" width="10" height="10"/><rect x="420" y="40" width="10" height="10"/><rect x="430" y="40" width="10" height="10"/><rect x="440" y="40" width="10" height="10"/><rect x="40" y="50" width="10" height="10"/><rect x="100" y="50" width="10" height="10"/><rect x="120" y="50" width="10" height="10"/><rect x="130" y="50" width="10" height="10"/><rect x="140" y="50" width="10" height="10"/><rect x="190" y="50" width="10" height="10"/><rect x="200" y="50" width="10" height="10"/><rect x="210" y="50" width="10" height="10"/><rect x="230" y="50" width="10" height="10"/><rect x="240" y="50" width="10" height="10"/><rect x="250" y="50" width="10" height="10"/><rect x="290" y="50" width="10" height="10"/><rect x="300" y="50" width="10" height="10"/><rect x="310" y="50" width="10" height="10"/><rect x="340" y="50" width="10" height="10"/><rect x="380" y="50" width="10" height="10"/><rect x="440" y="50" width="10" height="10"/><rect x="40" y="60" width="10" height="10"/><rect x="60" y="60" width="10" height="10"/><rect x="70" y="60" width="10" height="10"/><rect x="80" y="60" width="10" height="10"/><rect x="100" y="60" width="10" height="10"/><rect x="120" y="60" width="10" height="10"/><rect x="130" y="60" width="10" height="10"/><rect x="150" y="60" width="10" height="10"/><rect x="170" y="60" width="10" height="10"/><rect x="180" y="60" width="10" height="10"/><rect x="210" y="60" width="10" height="10"/><rect x="230" y="60" width="10" height="10"/><rect x="280" y="60" width="10" height="10"/><rect x="290" y="60" width="10" height="10"/><rect x="320" y="60" width="10" height="10"/><rect x="380" y="60" width="10" height="10"/><rect x="400" y="60" width="10" height="10"/><rect x="410" y="60" width="10" height="10"/><rect x="420" y="60" width="10" height="10"/><rect x="440" y="60" width="10" height="10"/><rect x="40" y="70" width="10" height="10"/><rect x="60" y="70" width="10" height="10"/><rect x="70" y="70" width="10" height="10"/><rect x="80" y="70" width="10" height="10"/><rect x="100" y="70" width="10" height="10"/><rect x="130" y="70" width="10" height="10"/><rect x="150" y="70" width="10" height="10"/><rect x="180" y="70" width="10" height="10"/><rect x="190" y="70" width="10" height="10"/><rect x="210" y="70" width="10" height="10"/><rect x="240" y="70" width="10" height="10"/><rect x="270" y="70" width="10" height="10"/><rect x="280" y="70" width="10" height="10"/><rect x="300" y="70" width="10" height="10"/><rect x="340" y="70" width="10" height="10"/><rect x="380" y="70" width="10" height="10"/><rect x="400" y="70" width="10" height="10"/><rect x="410" y="70" width="10" height="10"/><rect x="420" y="70" width="10" height="10"/><rect x="440" y="70" width="10" height="10"/><rect x="40" y="80" width="10" height="10"/><rect x="60" y="80" width="10" height="10"/><rect x="70" y="80" width="10" height="10"/><rect x="80" y="80" width="10" height="10"/><rect x="100" y="80" width="10" height="10"/><rect x="170" y="80" width="10" height="10"/><rect x="240" y="80" width="10" height="10"/><rect x="270" y="80" width="10" height="10"/><rect x="280" y="80" width="10" height="10"/><rect x="290" y="80" width="10" height="10"/><rect x="320" y="80" width="10" height="10"/><rect x="350" y="80" width="10" height="10"/><rect x="380" y="80" width="10" height="10"/><rect x="400" y="80" width="10" height="10"/><rect x="410" y="80" width="10" height="10"/><rect x="420" y="80" width="10" height="10"/><rect x="440" y="80" width="10" height="10"/><rect x="40" y="90" width="10" height="10"/><rect x="100" y="90" width="10" height="10"/><rect x="120" y="90" width="10" height="10"/><rect x="160" y="90" width="10" height="10"/><rect x="170" y="90" width="10" height="10"/><rect x="190" y="90" width="10" height="10"/><rect x="200" y="90" width="10" height="10"/><rect x="240" y="90" width="10" height="10"/><rect x="250" y="90" width="10" height="10"/><rect x="260" y="90" width="10" height="10"/><rect x="270" y="90" width="10" height="10"/><rect x="300" y="90" width="10" height="10"/><rect x="310" y="90" width="10" height="10"/><rect x="320" y="90" width="10" height="10"/><rect x="330" y="90" width="10" height="10"/><rect x="340" y="90" width="10" height="10"/><rect x="360" y="90" width="10" height="10"/><rect x="380" y="90" width="10" height="10"/><rect x="440" y="90" width="10" height="10"/><rect x="40" y="100" width="10" height="10"/><rect x="50" y="100" width="10" height="10"/><rect x="60" y="100" width="10" height="10"/><rect x="70" y="100" width="10" height="10"/><rect x="80" y="100" width="10" height="10"/><rect x="90" y="100" width="10" height="10"/><rect x="100" y="100" width="10" height="10"/><rect x="120" y="100" width="10" height="10"/><rect x="140" y="100" width="10" height="10"/><rect x="160" y="100" width="10" height="10"/><rect x="180" y="100" width="10" height="10"/><rect x="200" y="100" width="10" height="10"/><rect x="220" y="100" width="10" height="10"/><rect x="240" y="100" width="10" height="10"/><rect x="260" y="100" width="10" height="10"/><rect x="280" y="100" width="10" height="10"/><rect x="300" y="100" width="10" height="10"/><rect x="320" y="100" width="10" height="10"/><rect x="340" y="100" width="10" height="10"/><rect x="360" y="100" width="10" height="10"/><rect x="380" y="100" width="10" height="10"/><rect x="390" y="100" width="10" height="10"/><rect x="400" y="100" width="10" height="10"/><rect x="410" y="100" width="10" height="10"/><rect x="420" y="100" width="10" height="10"/><rect x="430" y="100" width="10" height="10"/><rect x="440" y="100" width="10" height="10"/><rect x="120" y="110" width="10" height="10"/><rect x="130" y="110" width="10" height="10"/><rect x="150" y="110" width="10" height="10"/><rect x="170" y="110" width="10" height="10"/><rect x="210" y="110" width="10" height="10"/><rect x="220" y="110" width="10" height="10"/><rect x="230" y="110" width="10" height="10"/><rect x="260" y="110" width="10" height="10"/><rect x="280" y="110" width="10" height="10"/><rect x="300" y="110" width="10" height="10"/><rect x="350" y="110" width="10" height="10"/><rect x="360" y="110" width="10" height="10"/><rect x="60" y="120" width="10" height="10"/><rect x="70" y="120" width="10" height="10"/><rect x="80" y="120" width="10" height="10"/><rect x="100" y="120" width="10" height="10"/><rect x="120" y="120" width="10" height="10"/><rect x="130" y="120" width="10" height="10"/><rect x="140" y="120" width="10" height="10"/><rect x="150" y="120" width="10" height="10"/><rect x="170" y="120" width="10" height="10"/><rect x="190" y="120" width="10" height="10"/><rect x="200" y="120" width="10" height="10"/><rect x="210" y="120" width="10" height="10"/><rect x="240" y="120" width="10" height="10"/><rect x="250" y="120" width="10" height="10"/><rect x="300" y="120" width="10" height="10"/><rect x="310" y="120" width="10" height="10"/><rect x="330" y="120" width="10" height="10"/><rect x="370" y="120" width="10" height="10"/><rect x="380" y="120" width="10" height="10"/><rect x="390" y="120" width="10" height="10"/><rect x="420" y="120" width="10" height="10"/><rect x="430" y="120" width="10" height="10"/><rect x="440" y="120" width="10" height="10"/><rect x="40" y="130" width="10" height="10"/><rect x="50" y="130" width="10" height="10"/><rect x="140" y="130" width="10" height="10"/><rect x="170" y="130" width="10" height="10"/><rect x="180" y="130" width="10" height="10"/><rect x="190" y="130" width="10" height="10"/><rect x="210" y="130" width="10" height="10"/><rect x="220" y="130" width="10" height="10"/><rect x="270" y="130" width="10" height="10"/><rect x="280" y="130" width="10" height="10"/><rect x="330" y="130" width="10" height="10"/><rect x="340" y="130" width="10" height="10"/><rect x="350" y="130" width="10" height="10"/><rect x="360" y="130" width="10" height="10"/><rect x="370" y="130" width="10" height="10"/><rect x="380" y="130" width="10" height="10"/><rect x="400" y="130" width="10" height="10"/><rect x="420" y="130" width="10" height="10"/><rect x="430" y="130" width="10" height="10"/><rect x="40" y="140" width="10" height="10"/><rect x="50" y="140" width="10" height="10"/><rect x="60" y="140" width="10" height="10"/><rect x="80" y="140" width="10" height="10"/><rect x="90" y="140" width="10" height="10"/><rect x="100" y="140" width="10" height="10"/><rect x="130" y="140" width="10" height="10"/><rect x="160" y="140" width="10" height="10"/><rect x="170" y="140" width="10" height="10"/><rect x="180" y="140" width="10" height="10"/><rect x="190" y="140" width="10" height="10"/><rect x="220" y="140" width="10" height="10"/><rect x="260" y="140" width="10" height="10"/><rect x="300" y="140" width="10" height="10"/><rect x="310" y="140" width="10" height="10"/><rect x="330" y="140" width="10" height="10"/><rect x="360" y="140" width="10" height="10"/><rect x="370" y="140" width="10" height="10"/><rect x="400" y="140" width="10" height="10"/><rect x="430" y="140" width="10" height="10"/><rect x="80" y="150" width="10" height="10"/><rect x="90" y="150" width="10" height="10"/><rect x="120" y="150" width="10" height="10"/><rect x="150" y="150" width="10" height="10"/><rect x="170" y="150" width="10" height="10"/><rect x="200" y="150" width="10" height="10"/><rect x="220" y="150" width="10" height="10"/><rect x="230" y="150" width="10" height="10"/><rect x="270" y="150" width="10" height="10"/><rect x="280" y="150" width="10" height="10"/><rect x="290" y="150" width="10" height="10"/><rect x="300" y="150" width="10" height="10"/><rect x="310" y="150" width="10" height="10"/><rect x="340" y="150" width="10" height="10"/><rect x="350" y="150" width="10" height="10"/><rect x="360" y="150" width="10" height="10"/><rect x="400" y="150" width="10" height="10"/><rect x="410" y="150" width="10" height="10"/><rect x="60" y="160" width="10" height="10"/><rect x="80" y="160" width="10" height="10"/><rect x="100" y="160" width="10" height="10"/><rect x="110" y="160" width="10" height="10"/><rect x="120" y="160" width="10" height="10"/><rect x="130" y="160" width="10" height="10"/><rect x="140" y="160" width="10" height="10"/><rect x="150" y="160" width="10" height="10"/><rect x="170" y="160" width="10" height="10"/><rect x="190" y="160" width="10" height="10"/><rect x="200" y="160" width="10" height="10"/><rect x="210" y="160" width="10" height="10"/><rect x="230" y="160" width="10" height="10"/><rect x="270" y="160" width="10" height="10"/><rect x="290" y="160" width="10" height="10"/><rect x="320" y="160" width="10" height="10"/><rect x="330" y="160" width="10" height="10"/><rect x="350" y="160" width="10" height="10"/><rect x="370" y="160" width="10" height="10"/><rect x="390" y="160" width="10" height="10"/><rect x="410" y="160" width="10" height="10"/><rect x="420" y="160" width="10" height="10"/><rect x="430" y="160" width="10" height="10"/><rect x="40" y="170" width="10" height="10"/><rect x="50" y="170" width="10" height="10"/><rect x="60" y="170" width="10" height="10"/><rect x="80" y="170" width="10" height="10"/><rect x="90" y="170" width="10" height="10"/><rect x="110" y="170" width="10" height="10"/><rect x="120" y="170" width="10" height="10"/><rect x="130" y="170" width="10" height="10"/><rect x="140" y="170" width="10" height="10"/><rect x="150" y="170" width="10" height="10"/><rect x="160" y="170" width="10" height="10"/><rect x="190" y="170" width="10" height="10"/><rect x="210" y="170" width="10" height="10"/><rect x="230" y="170" width="10" height="10"/><rect x="240" y="170" width="10" height="10"/><rect x="250" y="170" width="10" height="10"/><rect x="260" y="170" width="10" height="10"/><rect x="310" y="170" width="10" height="10"/><rect x="330" y="170" width="10" height="10"/><rect x="360" y="170" width="10" height="10"/><rect x="400" y="170" width="10" height="10"/><rect x="420" y="170" width="10" height="10"/><rect x="430" y="170" width="10" height="10"/><rect x="440" y="170" width="10" height="10"/><rect x="40" y="180" width="10" height="10"/><rect x="70" y="180" width="10" height="10"/><rect x="90" y="180" width="10" height="10"/><rect x="100" y="180" width="10" height="10"/><rect x="120" y="180" width="10" height="10"/><rect x="130" y="180" width="10" height="10"/><rect x="170" y="180" width="10" height="10"/><rect x="180" y="180" width="10" height="10"/><rect x="230" y="180" width="10" height="10"/><rect x="310" y="180" width="10" height="10"/><rect x="320" y="180" width="10" height="10"/><rect x="330" y="180" width="10" height="10"/><rect x="350" y="180" width="10" height="10"/><rect x="370" y="180" width="10" height="10"/><rect x="390" y="180" width="10" height="10"/><rect x="400" y="180" width="10" height="10"/><rect x="410" y="180" width="10" height="10"/><rect x="430" y="180" width="10" height="10"/><rect x="40" y="190" width="10" height="10"/><rect x="60" y="190" width="10" height="10"/><rect x="70" y="190" width="10" height="10"/><rect x="140" y="190" width="10" height="10"/><rect x="150" y="190" width="10" height="10"/><rect x="170" y="190" width="10" height="10"/><rect x="180" y="190" width="10" height="10"/><rect x="190" y="190" width="10" height="10"/><rect x="220" y="190" width="10" height="10"/><rect x="240" y="190" width="10" height="10"/><rect x="260" y="190" width="10" height="10"/><rect x="270" y="190" width="10" height="10"/><rect x="290" y="190" width="10" height="10"/><rect x="310" y="190" width="10" height="10"/><rect x="350" y="190" width="10" height="10"/><rect x="360" y="190" width="10" height="10"/><rect x="380" y="190" width="10" height="10"/><rect x="390" y="190" width="10" height="10"/><rect x="410" y="190" width="10" height="10"/><rect x="430" y="190" width="10" height="10"/><rect x="60" y="200" width="10" height="10"/><rect x="80" y="200" width="10" height="10"/><rect x="100" y="200" width="10" height="10"/><rect x="110" y="200" width="10" height="10"/><rect x="120" y="200" width="10" height="10"/><rect x="130" y="200" width="10" height="10"/><rect x="140" y="200" width="10" height="10"/><rect x="160" y="200" width="10" height="10"/><rect x="170" y="200" width="10" height="10"/><rect x="190" y="200" width="10" height="10"/><rect x="200" y="200" width="10" height="10"/><rect x="240" y="200" width="10" height="10"/><rect x="250" y="200" width="10" height="10"/><rect x="280" y="200" width="10" height="10"/><rect x="290" y="200" width="10" height="10"/><rect x="310" y="200" width="10" height="10"/><rect x="330" y="200" width="10" height="10"/><rect x="350" y="200" width="10" height="10"/><rect x="360" y="200" width="10" height="10"/><rect x="370" y="200" width="10" height="10"/><rect x="390" y="200" width="10" height="10"/><rect x="410" y="200" width="10" height="10"/><rect x="420" y="200" width="10" height="10"/><rect x="440" y="200" width="10" height="10"/><rect x="40" y="210" width="10" height="10"/><rect x="60" y="210" width="10" height="10"/><rect x="80" y="210" width="10" height="10"/><rect x="90" y="210" width="10" height="10"/><rect x="120" y="210" width="10" height="10"/><rect x="150" y="210" width="10" height="10"/><rect x="170" y="210" width="10" height="10"/><rect x="180" y="210" width="10" height="10"/><rect x="210" y="210" width="10" height="10"/><rect x="220" y="210" width="10" height="10"/><rect x="230" y="210" width="10" height="10"/><rect x="240" y="210" width="10" height="10"/><rect x="260" y="210" width="10" height="10"/><rect x="270" y="210" width="10" height="10"/><rect x="290" y="210" width="10" height="10"/><rect x="300" y="210" width="10" height="10"/><rect x="320" y="210" width="10" height="10"/><rect x="330" y="210" width="10" height="10"/><rect x="350" y="210" width="10" height="10"/><rect x="360" y="210" width="10" height="10"/><rect x="380" y="210" width="10" height="10"/><rect x="390" y="210" width="10" height="10"/><rect x="400" y="210" width="10" height="10"/><rect x="410" y="210" width="10" height="10"/><rect x="420" y="210" width="10" height="10"/><rect x="430" y="210" width="10" height="10"/><rect x="440" y="210" width="10" height="10"/><rect x="40" y="220" width="10" height="10"/><rect x="50" y="220" width="10" height="10"/><rect x="100" y="220" width="10" height="10"/><rect x="110" y="220" width="10" height="10"/><rect x="140" y="220" width="10" height="10"/><rect x="190" y="220" width="10" height="10"/><rect x="200" y="220" width="10" height="10"/><rect x="220" y="220" width="10" height="10"/><rect x="240" y="220" width="10" height="10"/><rect x="260" y="220" width="10" height="10"/><rect x="270" y="220" width="10" height="10"/><rect x="280" y="220" width="10" height="10"/><rect x="290" y="220" width="10" height="10"/><rect x="310" y="220" width="10" height="10"/><rect x="320" y="220" width="10" height="10"/><rect x="330" y="220" width="10" height="10"/><rect x="370" y="220" width="10" height="10"/><rect x="400" y="220" width="10" height="10"/><rect x="420" y="220" width="10" height="10"/><rect x="60" y="230" width="10" height="10"/><rect x="70" y="230" width="10" height="10"/><rect x="80" y="230" width="10" height="10"/><rect x="120" y="230" width="10" height="10"/><rect x="130" y="230" width="10" height="10"/><rect x="160" y="230" width="10" height="10"/><rect x="190" y="230" width="10" height="10"/><rect x="200" y="230" width="10" height="10"/><rect x="220" y="230" width="10" height="10"/><rect x="240" y="230" width="10" height="10"/><rect x="250" y="230" width="10" height="10"/><rect x="260" y="230" width="10" height="10"/><rect x="280" y="230" width="10" height="10"/><rect x="290" y="230" width="10" height="10"/><rect x="300" y="230" width="10" height="10"/><rect x="310" y="230" width="10" height="10"/><rect x="330" y="230" width="10" height="10"/><rect x="340" y="230" width="10" height="10"/><rect x="370" y="230" width="10" height="10"/><rect x="380" y="230" width="10" height="10"/><rect x="400" y="230" width="10" height="10"/><rect x="410" y="230" width="10" height="10"/><rect x="440" y="230" width="10" height="10"/><rect x="40" y="240" width="10" height="10"/><rect x="60" y="240" width="10" height="10"/><rect x="80" y="240" width="10" height="10"/><rect x="100" y="240" width="10" height="10"/><rect x="110" y="240" width="10" height="10"/><rect x="120" y="240" width="10" height="10"/><rect x="130" y="240" width="10" height="10"/><rect x="150" y="240" width="10" height="10"/><rect x="160" y="240" width="10" height="10"/><rect x="170" y="240" width="10" height="10"/><rect x="200" y="240" width="10" height="10"/><rect x="210" y="240" width="10" height="10"/><rect x="240" y="240" width="10" height="10"/><rect x="250" y="240" width="10" height="10"/><rect x="260" y="240" width="10" height="10"/><rect x="310" y="240" width="10" height="10"/><rect x="400" y="240" width="10" height="10"/><rect x="420" y="240" width="10" height="10"/><rect x="430" y="240" width="10" height="10"/><rect x="50" y="250" width="10" height="10"/><rect x="60" y="250" width="10" height="10"/><rect x="70" y="250" width="10" height="10"/><rect x="80" y="250" width="10" height="10"/><rect x="90" y="250" width="10" height="10"/><rect x="110" y="250" width="10" height="10"/><rect x="120" y="250" width="10" height="10"/><rect x="140" y="250" width="10" height="10"/><rect x="150" y="250" width="10" height="10"/><rect x="160" y="250" width="10" height="10"/><rect x="190" y="250" width="10" height="10"/><rect x="200" y="250" width="10" height="10"/><rect x="220" y="250" width="10" height="10"/><rect x="230" y="250" width="10" height="10"/><rect x="240" y="250" width="10" height="10"/><rect x="280" y="250" width="10" height="10"/><rect x="290" y="250" width="10" height="10"/><rect x="300" y="250" width="10" height="10"/><rect x="320" y="250" width="10" height="10"/><rect x="330" y="250" width="10" height="10"/><rect x="340" y="250" width="10" height="10"/><rect x="350" y="250" width="10" height="10"/><rect x="360" y="250" width="10" height="10"/><rect x="380" y="250" width="10" height="10"/><rect x="390" y="250" width="10" height="10"/><rect x="410" y="250" width="10" height="10"/><rect x="420" y="250" width="10" height="10"/><rect x="430" y="250" width="10" height="10"/><rect x="440" y="250" width="10" height="10"/><rect x="40" y="260" width="10" height="10"/><rect x="50" y="260" width="10" height="10"/><rect x="60" y="260" width="10" height="10"/><rect x="70" y="260" width="10" height="10"/><rect x="80" y="260" width="10" height="10"/><rect x="90" y="260" width="10" height="10"/><rect x="100" y="260" width="10" height="10"/><rect x="110" y="260" width="10" height="10"/><rect x="120" y="260" width="10" height="10"/><rect x="170" y="260" width="10" height="10"/><rect x="190" y="260" width="10" height="10"/><rect x="210" y="260" width="10" height="10"/><rect x="240" y="260" width="10" height="10"/><rect x="250" y="260" width="10" height="10"/><rect x="270" y="260" width="10" height="10"/><rect x="280" y="260" width="10" height="10"/><rect x="300" y="260" width="10" height="10"/><rect x="310" y="260" width="10" height="10"/><rect x="340" y="260" width="10" height="10"/><rect x="380" y="260" width="10" height="10"/><rect x="420" y="260" width="10" height="10"/><rect x="60" y="270" width="10" height="10"/><rect x="90" y="270" width="10" height="10"/><rect x="110" y="270" width="10" height="10"/><rect x="120" y="270" width="10" height="10"/><rect x="130" y="270" width="10" height="10"/><rect x="140" y="270" width="10" height="10"/><rect x="150" y="270" width="10" height="10"/><rect x="170" y="270" width="10" height="10"/><rect x="220" y="270" width="10" height="10"/><rect x="230" y="270" width="10" height="10"/><rect x="240" y="270" width="10" height="10"/><rect x="250" y="270" width="10" height="10"/><rect x="280" y="270" width="10" height="10"/><rect x="340" y="270" width="10" height="10"/><rect x="350" y="270" width="10" height="10"/><rect x="360" y="270" width="10" height="10"/><rect x="380" y="270" width="10" height="10"/><rect x="390" y="270" width="10" height="10"/><rect x="410" y="270" width="10" height="10"/><rect x="420" y="270" width="10" height="10"/><rect x="40" y="280" width="10" height="10"/><rect x="70" y="280" width="10" height="10"/><rect x="100" y="280" width="10" height="10"/><rect x="110" y="280" width="10" height="10"/><rect x="120" y="280" width="10" height="10"/><rect x="130" y="280" width="10" height="10"/><rect x="140" y="280" width="10" height="10"/><rect x="150" y="280" width="10" height="10"/><rect x="160" y="280" width="10" height="10"/><rect x="170" y="280" width="10" height="10"/><rect x="190" y="280" width="10" height="10"/><rect x="200" y="280" width="10" height="10"/><rect x="240" y="280" width="10" height="10"/><rect x="260" y="280" width="10" height="10"/><rect x="270" y="280" width="10" height="10"/><rect x="280" y="280" width="10" height="10"/><rect x="290" y="280" width="10" height="10"/><rect x="310" y="280" width="10" height="10"/><rect x="330" y="280" width="10" height="10"/><rect x="390" y="280" width="10" height="10"/><rect x="440" y="280" width="10" height="10"/><rect x="50" y="290" width="10" height="10"/><rect x="60" y="290" width="10" height="10"/><rect x="90" y="290" width="10" height="10"/><rect x="110" y="290" width="10" height="10"/><rect x="140" y="290" width="10" height="10"/><rect x="170" y="290" width="10" height="10"/><rect x="180" y="290" width="10" height="10"/><rect x="230" y="290" width="10" height="10"/><rect x="240" y="290" width="10" height="10"/><rect x="250" y="290" width="10" height="10"/><rect x="270" y="290" width="10" height="10"/><rect x="280" y="290" width="10" height="10"/><rect x="290" y="290" width="10" height="10"/><rect x="300" y="290" width="10" height="10"/><rect x="320" y="290" width="10" height="10"/><rect x="340" y="290" width="10" height="10"/><rect x="350" y="290" width="10" height="10"/><rect x="370" y="290" width="10" height="10"/><rect x="380" y="290" width="10" height="10"/><rect x="390" y="290" width="10" height="10"/><rect x="400" y="290" width="10" height="10"/><rect x="410" y="290" width="10" height="10"/><rect x="440" y="290" width="10" height="10"/><rect x="50" y="300" width="10" height="10"/><rect x="70" y="300" width="10" height="10"/><rect x="90" y="300" width="10" height="10"/><rect x="100" y="300" width="10" height="10"/><rect x="110" y="300" width="10" height="10"/><rect x="130" y="300" width="10" height="10"/><rect x="140" y="300" width="10" height="10"/><rect x="150" y="300" width="10" height="10"/><rect x="180" y="300" width="10" height="10"/><rect x="190" y="300" width="10" height="10"/><rect x="200" y="300" width="10" height="10"/><rect x="220" y="300" width="10" height="10"/><rect x="290" y="300" width="10" height="10"/><rect x="310" y="300" width="10" height="10"/><rect x="320" y="300" width="10" height="10"/><rect x="330" y="300" width="10" height="10"/><rect x="360" y="300" width="10" height="10"/><rect x="380" y="300" width="10" height="10"/><rect x="400" y="300" width="10" height="10"/><rect x="430" y="300" width="10" height="10"/><rect x="70" y="310" width="10" height="10"/><rect x="90" y="310" width="10" height="10"/><rect x="110" y="310" width="10" height="10"/><rect x="120" y="310" width="10" height="10"/><rect x="170" y="310" width="10" height="10"/><rect x="190" y="310" width="10" height="10"/><rect x="240" y="310" width="10" height="10"/><rect x="270" y="310" width="10" height="10"/><rect x="290" y="310" width="10" height="10"/><rect x="340" y="310" width="10" height="10"/><rect x="350" y="310" width="10" height="10"/><rect x="360" y="310" width="10" height="10"/><rect x="370" y="310" width="10" height="10"/><rect x="380" y="310" width="10" height="10"/><rect x="400" y="310" width="10" height="10"/><rect x="410" y="310" width="10" height="10"/><rect x="40" y="320" width="10" height="10"/><rect x="50" y="320" width="10" height="10"/><rect x="60" y="320" width="10" height="10"/><rect x="80" y="320" width="10" height="10"/><rect x="100" y="320" width="10" height="10"/><rect x="110" y="320" width="10" height="10"/><rect x="160" y="320" width="10" height="10"/><rect x="180" y="320" width="10" height="10"/><rect x="210" y="320" width="10" height="10"/><rect x="230" y="320" width="10" height="10"/><rect x="240" y="320" width="10" height="10"/><rect x="250" y="320" width="10" height="10"/><rect x="260" y="320" width="10" height="10"/><rect x="270" y="320" width="10" height="10"/><rect x="280" y="320" width="10" height="10"/><rect x="290" y="320" width="10" height="10"/><rect x="330" y="320" width="10" height="10"/><rect x="350" y="320" width="10" height="10"/><rect x="360" y="320" width="10" height="10"/><rect x="380" y="320" width="10" height="10"/><rect x="410" y="320" width="10" height="10"/><rect x="420" y="320" width="10" height="10"/><rect x="440" y="320" width="10" height="10"/><rect x="40" y="330" width="10" height="10"/><rect x="50" y="330" width="10" height="10"/><rect x="70" y="330" width="10" height="10"/><rect x="80" y="330" width="10" height="10"/><rect x="120" y="330" width="10" height="10"/><rect x="130" y="330" width="10" height="10"/><rect x="140" y="330" width="10" height="10"/><rect x="160" y="330" width="10" height="10"/><rect x="200" y="330" width="10" height="10"/><rect x="210" y="330" width="10" height="10"/><rect x="240" y="330" width="10" height="10"/><rect x="250" y="330" width="10" height="10"/><rect x="260" y="330" width="10" height="10"/><rect x="270" y="330" width="10" height="10"/><rect x="280" y="330" width="10" height="10"/><rect x="300" y="330" width="10" height="10"/><rect x="310" y="330" width="10" height="10"/><rect x="320" y="330" width="10" height="10"/><rect x="340" y="330" width="10" height="10"/><rect x="370" y="330" width="10" height="10"/><rect x="400" y="330" width="10" height="10"/><rect x="410" y="330" width="10" height="10"/><rect x="430" y="330" width="10" height="10"/><rect x="440" y="330" width="10" height="10"/><rect x="40" y="340" width="10" height="10"/><rect x="60" y="340" width="10" height="10"/><rect x="70" y="340" width="10" height="10"/><rect x="90" y="340" width="10" height="10"/><rect x="100" y="340" width="10" height="10"/><rect x="140" y="340" width="10" height="10"/><rect x="150" y="340" width="10" height="10"/><rect x="170" y="340" width="10" height="10"/><rect x="220" y="340" width="10" height="10"/><rect x="260" y="340" width="10" height="10"/><rect x="270" y="340" width="10" height="10"/><rect x="280" y="340" width="10" height="10"/><rect x="300" y="340" width="10" height="10"/><rect x="330" y="340" width="10" height="10"/><rect x="340" y="340" width="10" height="10"/><rect x="360" y="340" width="10" height="10"/><rect x="370" y="340" width="10" height="10"/><rect x="380" y="340" width="10" height="10"/><rect x="390" y="340" width="10" height="10"/><rect x="400" y="340" width="10" height="10"/><rect x="40" y="350" width="10" height="10"/><rect x="60" y="350" width="10" height="10"/><rect x="80" y="350" width="10" height="10"/><rect x="110" y="350" width="10" height="10"/><rect x="150" y="350" width="10" height="10"/><rect x="160" y="350" width="10" height="10"/><rect x="170" y="350" width="10" height="10"/><rect x="180" y="350" width="10" height="10"/><rect x="190" y="350" width="10" height="10"/><rect x="200" y="350" width="10" height="10"/><rect x="210" y="350" width="10" height="10"/><rect x="270" y="350" width="10" height="10"/><rect x="280" y="350" width="10" height="10"/><rect x="320" y="350" width="10" height="10"/><rect x="370" y="350" width="10" height="10"/><rect x="380" y="350" width="10" height="10"/><rect x="390" y="350" width="10" height="10"/><rect x="400" y="350" width="10" height="10"/><rect x="410" y="350" width="10" height="10"/><rect x="40" y="360" width="10" height="10"/><rect x="60" y="360" width="10" height="10"/><rect x="70" y="360" width="10" height="10"/><rect x="80" y="360" width="10" height="10"/><rect x="90" y="360" width="10" height="10"/><rect x="100" y="360" width="10" height="10"/><rect x="110" y="360" width="10" height="10"/><rect x="120" y="360" width="10" height="10"/><rect x="130" y="360" width="10" height="10"/><rect x="140" y="360" width="10" height="10"/><rect x="170" y="360" width="10" height="10"/><rect x="180" y="360" width="10" height="10"/><rect x="190" y="360" width="10" height="10"/><rect x="200" y="360" width="10" height="10"/><rect x="210" y="360" width="10" height="10"/><rect x="240" y="360" width="10" height="10"/><rect x="250" y="360" width="10" height="10"/><rect x="260" y="360" width="10" height="10"/><rect x="270" y="360" width="10" height="10"/><rect x="330" y="360" width="10" height="10"/><rect x="360" y="360" width="10" height="10"/><rect x="370" y="360" width="10" height="10"/><rect x="380" y="360" width="10" height="10"/><rect x="390" y="360" width="10" height="10"/><rect x="400" y="360" width="10" height="10"/><rect x="420" y="360" width="10" height="10"/><rect x="120" y="370" width="10" height="10"/><rect x="140" y="370" width="10" height="10"/><rect x="190" y="370" width="10" height="10"/><rect x="210" y="370" width="10" height="10"/><rect x="220" y="370" width="10" height="10"/><rect x="230" y="370" width="10" height="10"/><rect x="240" y="370" width="10" height="10"/><rect x="260" y="370" width="10" height="10"/><rect x="280" y="370" width="10" height="10"/><rect x="290" y="370" width="10" height="10"/><rect x="300" y="370" width="10" height="10"/><rect x="320" y="370" width="10" height="10"/><rect x="340" y="370" width="10" height="10"/><rect x="350" y="370" width="10" height="10"/><rect x="360" y="370" width="10" height="10"/><rect x="400" y="370" width="10" height="10"/><rect x="440" y="370" width="10" height="10"/><rect x="40" y="380" width="10" height="10"/><rect x="50" y="380" width="10" height="10"/><rect x="60" y="380" width="10" height="10"/><rect x="70" y="380" width="10" height="10"/><rect x="80" y="380" width="10" height="10"/><rect x="90" y="380" width="10" height="10"/><rect x="100" y="380" width="10" height="10"/><rect x="150" y="380" width="10" height="10"/><rect x="170" y="380" width="10" height="10"/><rect x="180" y="380" width="10" height="10"/><rect x="190" y="380" width="10" height="10"/><rect x="200" y="380" width="10" height="10"/><rect x="230" y="380" width="10" height="10"/><rect x="240" y="380" width="10" height="10"/><rect x="250" y="380" width="10" height="10"/><rect x="270" y="380" width="10" height="10"/><rect x="290" y="380" width="10" height="10"/><rect x="310" y="380" width="10" height="10"/><rect x="320" y="380" width="10" height="10"/><rect x="340" y="380" width="10" height="10"/><rect x="350" y="380" width="10" height="10"/><rect x="360" y="380" width="10" height="10"/><rect x="380" y="380" width="10" height="10"/><rect x="400" y="380" width="10" height="10"/><rect x="410" y="380" width="10" height="10"/><rect x="40" y="390" width="10" height="10"/><rect x="100" y="390" width="10" height="10"/><rect x="130" y="390" width="10" height="10"/><rect x="140" y="390" width="10" height="10"/><rect x="150" y="390" width="10" height="10"/><rect x="160" y="390" width="10" height="10"/><rect x="170" y="390" width="10" height="10"/><rect x="230" y="390" width="10" height="10"/><rect x="260" y="390" width="10" height="10"/><rect x="270" y="390" width="10" height="10"/><rect x="290" y="390" width="10" height="10"/><rect x="300" y="390" width="10" height="10"/><rect x="350" y="390" width="10" height="10"/><rect x="360" y="390" width="10" height="10"/><rect x="400" y="390" width="10" height="10"/><rect x="410" y="390" width="10" height="10"/><rect x="40" y="400" width="10" height="10"/><rect x="60" y="400" width="10" height="10"/><rect x="70" y="400" width="10" height="10"/><rect x="80" y="400" width="10" height="10"/><rect x="100" y="400" width="10" height="10"/><rect x="120" y="400" width="10" height="10"/><rect x="130" y="400" width="10" height="10"/><rect x="140" y="400" width="10" height="10"/><rect x="190" y="400" width="10" height="10"/><rect x="200" y="400" width="10" height="10"/><rect x="210" y="400" width="10" height="10"/><rect x="220" y="400" width="10" height="10"/><rect x="230" y="400" width="10" height="10"/><rect x="280" y="400" width="10" height="10"/><rect x="310" y="400" width="10" height="10"/><rect x="320" y="400" width="10" height="10"/><rect x="340" y="400" width="10" height="10"/><rect x="360" y="400" width="10" height="10"/><rect x="370" y="400" width="10" height="10"/><rect x="380" y="400" width="10" height="10"/><rect x="390" y="400" width="10" height="10"/><rect x="400" y="400" width="10" height="10"/><rect x="410" y="400" width="10" height="10"/><rect x="420" y="400" width="10" height="10"/><rect x="440" y="400" width="10" height="10"/><rect x="40" y="410" width="10" height="10"/><rect x="60" y="410" width="10" height="10"/><rect x="70" y="410" width="10" height="10"/><rect x="80" y="410" width="10" height="10"/><rect x="100" y="410" width="10" height="10"/><rect x="120" y="410" width="10" height="10"/><rect x="130" y="410" width="10" height="10"/><rect x="140" y="410" width="10" height="10"/><rect x="160" y="410" width="10" height="10"/><rect x="190" y="410" width="10" height="10"/><rect x="200" y="410" width="10" height="10"/><rect x="210" y="410" width="10" height="10"/><rect x="260" y="410" width="10" height="10"/><rect x="270" y="410" width="10" height="10"/><rect x="290" y="410" width="10" height="10"/><rect x="320" y="410" width="10" height="10"/><rect x="350" y="410" width="10" height="10"/><rect x="370" y="410" width="10" height="10"/><rect x="390" y="410" width="10" height="10"/><rect x="430" y="410" width="10" height="10"/><rect x="440" y="410" width="10" height="10"/><rect x="40" y="420" width="10" height="10"/><rect x="60" y="420" width="10" height="10"/><rect x="70" y="420" width="10" height="10"/><rect x="80" y="420" width="10" height="10"/><rect x="100" y="420" width="10" height="10"/><rect x="120" y="420" width="10" height="10"/><rect x="130" y="420" width="10" height="10"/><rect x="150" y="420" width="10" height="10"/><rect x="200" y="420" width="10" height="10"/><rect x="230" y="420" width="10" height="10"/><rect x="250" y="420" width="10" height="10"/><rect x="280" y="420" width="10" height="10"/><rect x="290" y="420" width="10" height="10"/><rect x="310" y="420" width="10" height="10"/><rect x="320" y="420" width="10" height="10"/><rect x="340" y="420" width="10" height="10"/><rect x="370" y="420" width="10" height="10"/><rect x="380" y="420" width="10" height="10"/><rect x="390" y="420" width="10" height="10"/><rect x="400" y="420" width="10" height="10"/><rect x="410" y="420" width="10" height="10"/><rect x="430" y="420" width="10" height="10"/><rect x="40" y="430" width="10" height="10"/><rect x="100" y="430" width="10" height="10"/><rect x="140" y="430" width="10" height="10"/><rect x="150" y="430" width="10" height="10"/><rect x="160" y="430" width="10" height="10"/><rect x="170" y="430" width="10" height="10"/><rect x="180" y="430" width="10" height="10"/><rect x="210" y="430" width="10" height="10"/><rect x="250" y="430" width="10" height="10"/><rect x="270" y="430" width="10" height="10"/><rect x="310" y="430" width="10" height="10"/><rect x="320" y="430" width="10" height="10"/><rect x="350" y="430" width="10" height="10"/><rect x="360" y="430" width="10" height="10"/><rect x="370" y="430" width="10" height="10"/><rect x="400" y="430" width="10" height="10"/><rect x="430" y="430" width="10" height="10"/><rect x="40" y="440" width="10" height="10"/><rect x="50" y="440" width="10" height="10"/><rect x="60" y="440" width="10" height="10"/><rect x="70" y="440" width="10" height="10"/><rect x="80" y="440" width="10" height="10"/><rect x="90" y="440" width="10" height="10"/><rect x="100" y="440" width="10" height="10"/><rect x="200" y="440" width="10" height="10"/><rect x="210" y="440" width="10" height="10"/><rect x="230" y="440" width="10" height="10"/><rect x="270" y="440" width="10" height="10"/><rect x="290" y="440" width="10" height="10"/><rect x="300" y="440" width="10" height="10"/><rect x="310" y="440" width="10" height="10"/><rect x="330" y="440" width="10" height="10"/><rect x="350" y="440" width="10" height="10"/><rect x="370" y="440" width="10" height="10"/><rect x="390" y="440" width="10" height="10"/><rect x="400" y="440" width="10" height="10"/><rect x="410" y="440" width="10" height="10"/></g></svg>